<svg width="42" height="42" viewBox="0 0 42 42" fill="none" xmlns="http://www.w3.org/2000/svg">
<rect width="42" height="42" rx="7" fill="#1E1E1E"/>
<g clip-path="url(#clip0_303_5)">
<path d="M21 21.2333C21 20.0575 21.4671 18.9299 22.2985 18.0985C23.1299 17.2671 24.2575 16.8 25.4333 16.8C26.6091 16.8 27.7368 17.2671 28.5682 18.0985C29.3996 18.9299 29.8667 20.0575 29.8667 21.2333C29.8667 22.4091 29.3996 23.5368 28.5682 24.3682C27.7368 25.1996 26.6091 25.6667 25.4333 25.6667C24.2575 25.6667 23.1299 25.1996 22.2985 24.3682C21.4671 23.5368 21 22.4091 21 21.2333V21.2333Z" fill="#1ABCFE"/>
<path d="M12.1333 30.1C12.1333 28.9242 12.6004 27.7966 13.4318 26.9652C14.2632 26.1338 15.3908 25.6667 16.5666 25.6667H21V30.1C21 31.2758 20.5329 32.4034 19.7015 33.2348C18.8701 34.0663 17.7424 34.5333 16.5666 34.5333C15.3908 34.5333 14.2632 34.0663 13.4318 33.2348C12.6004 32.4034 12.1333 31.2758 12.1333 30.1V30.1Z" fill="#0ACF83"/>
<path d="M21 7.93333V16.8H25.4333C26.6091 16.8 27.7368 16.3329 28.5682 15.5015C29.3996 14.6701 29.8667 13.5425 29.8667 12.3667C29.8667 11.1909 29.3996 10.0632 28.5682 9.23183C27.7368 8.40042 26.6091 7.93333 25.4333 7.93333H21Z" fill="#FF7262"/>
<path d="M12.1333 12.3667C12.1333 13.5425 12.6004 14.6701 13.4318 15.5015C14.2632 16.3329 15.3908 16.8 16.5666 16.8H21V7.93333H16.5666C15.3908 7.93333 14.2632 8.40042 13.4318 9.23183C12.6004 10.0632 12.1333 11.1909 12.1333 12.3667V12.3667Z" fill="#F24E1E"/>
<path d="M12.1333 21.2333C12.1333 22.4091 12.6004 23.5368 13.4318 24.3682C14.2632 25.1996 15.3908 25.6667 16.5666 25.6667H21V16.8H16.5666C15.3908 16.8 14.2632 17.2671 13.4318 18.0985C12.6004 18.9299 12.1333 20.0575 12.1333 21.2333V21.2333Z" fill="#A259FF"/>
</g>
<defs>
<clipPath id="clip0_303_5">
<rect width="17.7333" height="26.6" fill="white" transform="translate(12.1333 7.93333)"/>
</clipPath>
</defs>
</svg>
