<svg width="30" height="30" viewBox="0 0 112 108" fill="none" xmlns="http://www.w3.org/2000/svg">
<path fill-rule="evenodd" clip-rule="evenodd" d="M55.6364 0C24.8973 0 0 24.7762 0 55.3659C0 79.8653 15.9259 100.558 38.0414 107.894C40.8232 108.379 41.8664 106.718 41.8664 105.264C41.8664 103.949 41.7968 99.5894 41.7968 94.9525C27.8182 97.5131 24.2018 91.5613 23.0891 88.447C22.4632 86.8552 19.7509 81.9415 17.3864 80.6265C15.4391 79.5884 12.6573 77.0278 17.3168 76.9586C21.6982 76.8893 24.8277 80.9726 25.8709 82.6336C30.8782 91.0076 38.8759 88.6546 42.075 87.2012C42.5618 83.6025 44.0223 81.1802 45.6218 79.7961C33.2427 78.4119 20.3073 73.6366 20.3073 52.4592C20.3073 46.4381 22.4632 41.4552 26.01 37.5796C25.4536 36.1954 23.5064 30.5204 26.5664 22.9076C26.5664 22.9076 31.2259 21.4543 41.8664 28.5826C46.3173 27.3369 51.0464 26.714 55.7755 26.714C60.5045 26.714 65.2336 27.3369 69.6845 28.5826C80.325 21.3851 84.9845 22.9076 84.9845 22.9076C88.0445 30.5204 86.0973 36.1954 85.5409 37.5796C89.0877 41.4552 91.2436 46.3689 91.2436 52.4592C91.2436 73.7058 78.2386 78.4119 65.8595 79.7961C67.8764 81.5262 69.615 84.8482 69.615 90.0387C69.615 97.4439 69.5455 103.396 69.5455 105.264C69.5455 106.718 70.5886 108.448 73.3705 107.894C95.3468 100.558 111.273 79.7961 111.273 55.3659C111.273 24.7762 86.3755 0 55.6364 0Z" fill="white"/>
</svg>
