<svg width="44" height="44" viewBox="0 0 187 187" fill="none" xmlns="http://www.w3.org/2000/svg">
<mask id="mask0_201_614" style="mask-type:luminance" maskUnits="userSpaceOnUse" x="136" y="2" width="36" height="37">
<path d="M136.933 2.98438H171.97V38.0592H136.933V2.98438Z" fill="white"/>
</mask>
<g mask="url(#mask0_201_614)">
<path d="M136.986 2.98438L171.944 37.9368H136.986V2.98438Z" fill="#FFAF36"/>
</g>
<mask id="mask1_201_614" style="mask-type:luminance" maskUnits="userSpaceOnUse" x="37" y="2" width="135" height="182">
<path d="M37.9316 2.98438H171.968V183.572H37.9316V2.98438Z" fill="white"/>
</mask>
<g mask="url(#mask1_201_614)">
<path d="M171.943 37.9368V183.572H37.938V2.98438H136.985V37.9368H171.943Z" fill="#FF6D00"/>
</g>
<path d="M43.7651 26.2852V166.095C43.7651 166.286 43.77 166.476 43.7792 166.666C43.7889 166.857 43.8025 167.047 43.8215 167.237C43.84 167.427 43.8633 167.616 43.8915 167.804C43.9196 167.993 43.9522 168.181 43.9891 168.368C44.0265 168.555 44.0683 168.741 44.1144 168.926C44.1611 169.111 44.2116 169.294 44.267 169.477C44.3224 169.659 44.3821 169.84 44.4463 170.02C44.5109 170.199 44.5794 170.377 44.6523 170.554C44.7251 170.729 44.8024 170.904 44.884 171.076C44.9656 171.249 45.0511 171.419 45.141 171.587C45.2314 171.755 45.3251 171.921 45.4233 172.084C45.5214 172.248 45.6229 172.409 45.7293 172.568C45.8352 172.726 45.945 172.882 46.0582 173.035C46.1719 173.188 46.2895 173.339 46.4105 173.486C46.5314 173.634 46.6558 173.778 46.7841 173.919C46.9118 174.06 47.0435 174.198 47.1781 174.333C47.3131 174.468 47.4511 174.6 47.5925 174.728C47.7339 174.856 47.8782 174.98 48.0254 175.101C48.173 175.222 48.3232 175.339 48.4767 175.453C48.6297 175.566 48.7857 175.676 48.9441 175.782C49.1024 175.888 49.2637 175.99 49.4275 176.088C49.5907 176.186 49.7568 176.28 49.9249 176.37C50.093 176.46 50.2636 176.546 50.436 176.627C50.608 176.709 50.7824 176.786 50.9588 176.859C51.1347 176.932 51.313 177.001 51.4922 177.065C51.672 177.129 51.8527 177.189 52.0354 177.244C52.2181 177.299 52.4017 177.35 52.5868 177.396C52.7714 177.443 52.9575 177.485 53.1445 177.522C53.3316 177.559 53.5196 177.592 53.7081 177.619C53.8966 177.648 54.0861 177.671 54.276 177.689C54.4655 177.708 54.6559 177.722 54.8464 177.732C55.0368 177.741 55.2273 177.746 55.4177 177.746H154.465C154.656 177.746 154.847 177.741 155.037 177.732C155.228 177.722 155.418 177.708 155.607 177.689C155.797 177.671 155.986 177.648 156.175 177.619C156.364 177.592 156.551 177.559 156.738 177.522C156.926 177.485 157.112 177.443 157.297 177.396C157.482 177.35 157.665 177.299 157.848 177.244C158.03 177.189 158.212 177.129 158.391 177.065C158.571 177.001 158.748 176.932 158.925 176.859C159.101 176.786 159.275 176.709 159.447 176.627C159.62 176.546 159.79 176.46 159.959 176.37C160.127 176.28 160.292 176.186 160.456 176.088C160.62 175.99 160.781 175.888 160.939 175.782C161.098 175.676 161.254 175.566 161.407 175.453C161.56 175.339 161.71 175.222 161.858 175.101C162.005 174.98 162.15 174.856 162.291 174.728C162.432 174.6 162.57 174.468 162.705 174.333C162.84 174.198 162.971 174.06 163.099 173.919C163.228 173.778 163.352 173.634 163.473 173.486C163.594 173.339 163.711 173.188 163.825 173.035C163.938 172.882 164.048 172.726 164.154 172.568C164.26 172.409 164.362 172.248 164.46 172.084C164.558 171.921 164.652 171.755 164.742 171.587C164.832 171.419 164.918 171.249 164.999 171.076C165.081 170.904 165.158 170.729 165.231 170.554C165.304 170.377 165.373 170.199 165.437 170.02C165.501 169.84 165.561 169.659 165.616 169.477C165.671 169.294 165.722 169.111 165.769 168.926C165.815 168.741 165.857 168.555 165.894 168.368C165.931 168.181 165.964 167.993 165.992 167.804C166.02 167.616 166.043 167.427 166.062 167.237C166.08 167.047 166.095 166.857 166.104 166.666C166.114 166.476 166.118 166.286 166.118 166.095V159.911C43.7651 152.373 43.7651 26.2852 43.7651 26.2852Z" fill="#F54E00"/>
<mask id="mask2_201_614" style="mask-type:luminance" maskUnits="userSpaceOnUse" x="139" y="37" width="33" height="7">
<path d="M139.792 37.9336H171.968V43.7791H139.792V37.9336Z" fill="white"/>
</mask>
<g mask="url(#mask2_201_614)">
<path d="M139.898 37.9346H171.943V43.7601H139.898V37.9346Z" fill="#F54E00"/>
</g>
<mask id="mask3_201_614" style="mask-type:luminance" maskUnits="userSpaceOnUse" x="14" y="11" width="106" height="48">
<path d="M14.608 11.6914H119.521V58.3308H14.608V11.6914Z" fill="white"/>
</mask>
<g mask="url(#mask3_201_614)">
<path d="M14.6339 11.7207H119.508V58.3237H14.6339V11.7207Z" fill="#F54100"/>
</g>
<path d="M37.939 58.3242H113.681V67.0623H37.939V58.3242Z" fill="#D63900"/>
<path d="M102.029 43.7617V20.46H96.2021V46.6742C96.2021 46.7695 96.207 46.8647 96.2162 46.9599C96.226 47.0546 96.2396 47.1489 96.2585 47.2427C96.277 47.3359 96.3003 47.4282 96.328 47.5196C96.3557 47.6109 96.3877 47.7008 96.4242 47.7887C96.4606 47.8772 96.5014 47.9631 96.5461 48.0472C96.5913 48.1312 96.6404 48.2133 96.6933 48.2925C96.7463 48.3717 96.8031 48.4485 96.8638 48.5218C96.9241 48.5957 96.9882 48.6661 97.0557 48.7337C97.1233 48.8012 97.1937 48.8653 97.2676 48.9256C97.3414 48.9863 97.4177 49.0431 97.4969 49.0961C97.5766 49.149 97.6582 49.1981 97.7422 49.2428C97.8263 49.288 97.9127 49.3288 98.0007 49.3652C98.0886 49.4017 98.1785 49.4337 98.2698 49.4614C98.3612 49.4891 98.4535 49.5124 98.5472 49.5309C98.641 49.5494 98.7353 49.5635 98.83 49.5727C98.9247 49.5824 99.0199 49.5868 99.1157 49.5868H110.768V43.7617H102.029Z" fill="white"/>
<path d="M37.9391 32.1106H29.1996V20.46H23.373V49.5868H29.1996V37.9361H37.9391V49.5868H43.7652V20.46H37.9391V32.1106Z" fill="white"/>
<path d="M46.6788 26.2855H52.5049V49.5868H58.3314V26.2855H64.1574V20.46H46.6788V26.2855Z" fill="white"/>
<path d="M88.0454 20.5205C87.8822 20.4861 87.7175 20.4656 87.5509 20.4598C87.3842 20.454 87.2186 20.4622 87.0534 20.4846C86.8882 20.5074 86.7264 20.5444 86.5675 20.5949C86.4092 20.6454 86.2556 20.7095 86.108 20.7868C85.9603 20.8635 85.8203 20.9529 85.6877 21.0545C85.5556 21.1555 85.4331 21.2677 85.3199 21.3902C85.2072 21.5126 85.1057 21.6438 85.0153 21.7842C84.925 21.9241 84.8477 22.0708 84.7826 22.2243L78.7234 36.3653L72.6612 22.2243C72.5951 22.0713 72.5174 21.9251 72.4266 21.7856C72.3357 21.6462 72.2337 21.515 72.1205 21.3931C72.0078 21.2711 71.8849 21.1594 71.7527 21.0584C71.6206 20.9573 71.4807 20.8684 71.333 20.7912C71.1853 20.7139 71.0322 20.6503 70.8739 20.5992C70.7155 20.5482 70.5537 20.5113 70.389 20.4885C70.2238 20.4652 70.0586 20.4564 69.892 20.4613C69.7258 20.4666 69.5612 20.4861 69.3979 20.5196C69.2347 20.5531 69.0758 20.6002 68.9208 20.6609C68.7659 20.7217 68.6172 20.795 68.4748 20.881C68.3325 20.9675 68.1984 21.0652 68.0726 21.1745C67.9472 21.2833 67.8316 21.4023 67.7267 21.5316C67.6212 21.6603 67.528 21.7973 67.4459 21.9426C67.3642 22.0873 67.2953 22.2384 67.2394 22.3954C67.1835 22.5518 67.1417 22.7121 67.1131 22.8763C67.0849 23.04 67.0708 23.2057 67.0708 23.3719V49.5861H72.8968V37.5629L76.046 44.9086C76.1018 45.0388 76.1669 45.1641 76.2413 45.2851C76.3151 45.4056 76.3977 45.5203 76.4891 45.6291C76.5799 45.7379 76.678 45.8394 76.784 45.9337C76.8899 46.0279 77.0016 46.1139 77.1201 46.1922C77.2382 46.2699 77.3616 46.3389 77.4903 46.3991C77.6186 46.4589 77.7507 46.5094 77.8863 46.5502C78.0223 46.591 78.1603 46.6216 78.3002 46.642C78.4406 46.6624 78.5815 46.6726 78.7234 46.6726C78.8647 46.6726 79.0061 46.6624 79.146 46.642C79.2864 46.6216 79.4244 46.591 79.56 46.5502C79.696 46.5094 79.8281 46.4589 79.9564 46.3991C80.0847 46.3389 80.2081 46.2699 80.3266 46.1922C80.4447 46.1139 80.5569 46.0279 80.6628 45.9337C80.7682 45.8394 80.8668 45.7379 80.9577 45.6291C81.0485 45.5203 81.1311 45.4056 81.2055 45.2851C81.2793 45.1641 81.3444 45.0388 81.4003 44.9086L84.5494 37.5629V49.5861H90.3759V23.3719C90.3759 23.2052 90.3614 23.04 90.3332 22.8763C90.3045 22.7121 90.2623 22.5518 90.2064 22.3949C90.15 22.2379 90.0815 22.0869 89.9994 21.9421C89.9173 21.7973 89.824 21.6603 89.7186 21.5311C89.6132 21.4023 89.4976 21.2833 89.3717 21.174C89.2459 21.0652 89.1118 20.9675 88.9695 20.8815C88.8266 20.795 88.678 20.7217 88.523 20.6614C88.3675 20.6007 88.2087 20.5536 88.0454 20.5205Z" fill="white"/>
<path d="M72.8968 145.706L49.5917 119.492L72.8968 93.2773H84.5494L61.2442 119.492L84.5494 145.706H72.8968Z" fill="white"/>
<path d="M136.986 145.706L160.292 119.492L136.986 93.2773H125.334L148.639 119.492L125.334 145.706H136.986Z" fill="white"/>
<path d="M93.2892 145.706L107.855 93.2773H116.594L102.029 145.706H93.2892Z" fill="white"/>
<path d="M49.5917 119.492L67.7174 99.1025H67.0708L43.7651 125.317L67.0708 151.532H78.7233L73.5434 145.706H72.8968L49.5917 119.492Z" fill="#D63900"/>
<path d="M148.639 119.492L130.514 99.1025H119.508L142.813 125.317L119.508 151.532H131.16L136.34 145.706H125.334L148.639 119.492Z" fill="#D63900"/>
<path d="M106.235 99.1025H102.028L87.4628 151.532H96.2018L97.8216 145.706H93.2888L106.235 99.1025Z" fill="#D63900"/>
<path d="M96.2022 46.6738V23.3721H93.2892V49.5864C93.2892 49.6821 93.294 49.7773 93.3033 49.872C93.3125 49.9668 93.3266 50.061 93.3451 50.1548C93.364 50.2485 93.3868 50.3408 93.4145 50.4322C93.4422 50.5235 93.4743 50.6129 93.5112 50.7013C93.5476 50.7893 93.5885 50.8753 93.6332 50.9598C93.6783 51.0438 93.7274 51.1255 93.7804 51.2046C93.8333 51.2838 93.8902 51.3606 93.9504 51.4344C94.0111 51.5083 94.0753 51.5787 94.1423 51.6463C94.2098 51.7138 94.2808 51.7774 94.3541 51.8382C94.428 51.8984 94.5047 51.9552 94.5839 52.0082C94.6631 52.0612 94.7452 52.1102 94.8293 52.1554C94.9133 52.2001 94.9993 52.2409 95.0877 52.2774C95.1757 52.3138 95.2655 52.3463 95.3569 52.374C95.4482 52.4017 95.5405 52.4246 95.6343 52.443C95.7276 52.462 95.8218 52.4761 95.917 52.4853C96.0118 52.4945 96.107 52.4994 96.2022 52.4994H107.855V49.5864H99.1157C99.02 49.5864 98.9248 49.582 98.83 49.5723C98.7353 49.563 98.6411 49.5489 98.5473 49.5305C98.4535 49.512 98.3612 49.4887 98.2699 49.461C98.1786 49.4333 98.0887 49.4013 98.0007 49.3648C97.9128 49.3284 97.8263 49.2876 97.7423 49.2424C97.6582 49.1977 97.5766 49.1486 97.4969 49.0957C97.4177 49.0427 97.3415 48.9859 97.2676 48.9251C97.1938 48.8649 97.1233 48.8008 97.0558 48.7332C96.9883 48.6657 96.9241 48.5953 96.8639 48.5214C96.8032 48.4481 96.7463 48.3713 96.6934 48.2921C96.6404 48.2129 96.5914 48.1308 96.5462 48.0468C96.5015 47.9627 96.4607 47.8767 96.4242 47.7883C96.3878 47.7004 96.3557 47.6105 96.328 47.5192C96.3003 47.4278 96.277 47.3355 96.2586 47.2422C96.2396 47.1485 96.226 47.0542 96.2163 46.9595C96.2071 46.8643 96.2022 46.769 96.2022 46.6738Z" fill="#D63900"/>
<path d="M35.0264 23.3721H37.9394V32.1102H35.0264V23.3721Z" fill="#D63900"/>
<path d="M23.3732 23.3721H20.4602V52.4994H26.2867V49.5864H23.3732V23.3721Z" fill="#D63900"/>
<path d="M37.9393 37.9365H29.1997V40.8491H35.0262V52.5002H40.8523V49.5872H37.9393V37.9365Z" fill="#D63900"/>
<path d="M58.3313 26.2852H61.2443V29.1977H58.3313V26.2852Z" fill="#D63900"/>
<path d="M52.5047 26.2851H46.6786V23.3721H43.7651V29.1976H49.5917V52.4994H55.4177V49.5864H52.5047V26.2851Z" fill="#D63900"/>
<path d="M67.0709 23.4121C66.8756 23.397 66.6817 23.4038 66.4879 23.4325C66.3251 23.466 66.1658 23.5126 66.0108 23.5734C65.8553 23.6341 65.7067 23.7075 65.5643 23.7935C65.4215 23.8794 65.2874 23.9771 65.1616 24.0864C65.0357 24.1952 64.9201 24.3143 64.8147 24.4435C64.7097 24.5722 64.616 24.7092 64.5339 24.854C64.4522 24.9993 64.3833 25.1499 64.3274 25.3068C64.271 25.4637 64.2288 25.6241 64.2006 25.7883C64.1719 25.9525 64.1578 26.1177 64.1573 26.2843V52.4986H69.9839V49.5855H67.0709V23.4121Z" fill="#D63900"/>
<path d="M84.2818 23.4004C84.1516 23.4125 84.0233 23.4329 83.8965 23.4621C83.7693 23.4912 83.6449 23.5286 83.5229 23.5743C83.4005 23.6205 83.2825 23.6744 83.1673 23.7361C83.0527 23.7978 82.9424 23.8668 82.837 23.9435C82.7315 24.0198 82.6314 24.1034 82.5372 24.1933C82.4429 24.2831 82.355 24.3788 82.2734 24.4809C82.1918 24.5824 82.1179 24.6893 82.0504 24.801C81.9834 24.9128 81.9241 25.0284 81.8726 25.1479L77.8903 34.4398L78.7235 36.3793L84.2818 23.4004Z" fill="#D63900"/>
<path d="M76.0461 44.9102L72.897 37.5645V47.2577L73.1331 47.8081C73.189 47.9383 73.2541 48.0642 73.3284 48.1846C73.4022 48.3056 73.4848 48.4203 73.5757 48.5286C73.667 48.6374 73.7651 48.739 73.8711 48.8332C73.9765 48.9275 74.0887 49.014 74.2072 49.0917C74.3253 49.1699 74.4487 49.2389 74.577 49.2986C74.7057 49.3589 74.8374 49.4089 74.9734 49.4497C75.1089 49.4905 75.2469 49.5212 75.3873 49.5416C75.5277 49.5624 75.6686 49.5727 75.81 49.5727C75.9519 49.5727 76.0927 49.5624 76.2332 49.5416C76.3736 49.5212 76.5115 49.4905 76.6471 49.4497C76.7831 49.4089 76.9148 49.3589 77.0435 49.2986C77.1718 49.2389 77.2952 49.1699 77.4132 49.0917C77.5318 49.014 77.644 48.9275 77.7494 48.8332C77.8553 48.739 77.9535 48.6374 78.0448 48.5286C78.1357 48.4203 78.2182 48.3056 78.2921 48.1846C78.3664 48.0642 78.4315 47.9383 78.4874 47.8081L78.997 46.6198C78.9042 46.6198 78.8168 46.6606 78.7235 46.6606C78.5821 46.6611 78.4412 46.6509 78.3013 46.631C78.1614 46.6106 78.0239 46.5804 77.8884 46.5401C77.7528 46.4998 77.6212 46.4502 77.4929 46.391C77.3646 46.3312 77.2412 46.2632 77.1232 46.1855C77.0046 46.1082 76.8924 46.0227 76.787 45.9289C76.6811 45.8357 76.5825 45.7346 76.4911 45.6268C76.4003 45.5184 76.3172 45.4047 76.2429 45.2847C76.168 45.1643 76.1025 45.0399 76.0461 44.9102Z" fill="#D63900"/>
<path d="M84.5495 37.5645L81.6365 44.3597V52.5007H87.463V49.5877H84.5495V37.5645Z" fill="#D63900"/>
</svg>
