<svg width="30" height="30" viewBox="0 0 110 110" fill="none" xmlns="http://www.w3.org/2000/svg">
<path fill-rule="evenodd" clip-rule="evenodd" d="M98.7976 88.2731C105.827 79.0345 110 67.5046 110 55C110 24.6243 85.3757 0 55 0C24.6243 0 0 24.6243 0 55C0 71.2945 7.0859 85.934 18.3444 96.0052V48.8094H35.8117V101.361L35.8125 106.56C38.9166 107.716 42.1533 108.599 45.4935 109.181C45.5396 95.9948 45.6738 52.9798 45.481 48.8112H62.9474V56.2497C65.2692 52.6696 69.4248 47.5774 78.6897 47.5774C90.1815 47.5774 98.7976 55.0886 98.7976 71.2295V88.2731ZM81.3321 103.299V73.2503C81.3321 66.1851 78.8028 61.3664 72.484 61.3664C67.6575 61.3664 64.7836 64.6161 63.5214 67.7554C63.06 68.8758 62.946 70.4484 62.946 72.0169V109.43C69.5233 108.478 75.7239 106.363 81.3321 103.299ZM36.963 32.5573C36.963 37.6003 33.1716 41.6357 27.0817 41.6357L27.0803 41.6352H26.9672C21.1048 41.6352 17.3148 37.5999 17.3148 32.5568C17.3148 27.3994 21.2193 23.4767 27.1975 23.4767C33.1716 23.4767 36.849 27.3994 36.963 32.5573Z" fill="white"/>
</svg>
