<?xml version="1.0" encoding="utf-8"?>
<!-- Generator: Adobe Illustrator 28.1.0, SVG Export Plug-In . SVG Version: 6.00 Build 0)  -->
<svg version="1.1" id="Layer_1" xmlns="http://www.w3.org/2000/svg" xmlns:xlink="http://www.w3.org/1999/xlink" x="0px" y="0px"
	 viewBox="0 0 448 512" style="enable-background:new 0 0 448 512;" xml:space="preserve">
<style type="text/css">
	.st0{fill:#FFFFFF;}
</style>
<path class="st0" d="M221.6,126.7c1.6-0.3,3.3-0.3,4.9,0L330,147.4c5.8,1.1,10,6.3,10,12.2s-4.2,11-10,12.2l-39.7,8v29.6
	c0,36.6-29.7,66.3-66.3,66.3s-66.3-29.7-66.3-66.3v-29.6l-24.9-5v33.7l8.1,40.6c0.5,2.4-0.2,5-1.7,6.9c-1.6,1.9-3.9,3.1-6.4,3.1
	h-16.6c-2.5,0-4.8-1.1-6.4-3.1s-2.2-4.5-1.7-6.9l8.1-40.6v-37.2c-4.9-1.7-8.3-6.4-8.3-11.7c0-5.9,4.2-11,10-12.2L221.6,126.7z
	 M165.9,296.1c5.4-1.8,11.3,0.2,15.2,4.4l36.8,39.1c3.3,3.5,8.8,3.5,12.1,0l36.8-39.1c3.9-4.2,9.8-6.2,15.2-4.4
	c33.7,10.8,58,42.3,58,79.6c0,8.8-7.1,15.9-15.9,15.9H123.9c-8.8,0-15.9-7.1-15.9-15.9C108,338.4,132.3,307,165.9,296.1L165.9,296.1
	z"/>
<g>
	<path class="st0" d="M224,59c27,0,53.2,5.3,77.8,15.7c23.8,10.1,45.2,24.5,63.6,42.9s32.8,39.8,42.9,63.6
		C418.7,205.8,424,232,424,259s-5.3,53.2-15.7,77.8c-10.1,23.8-24.5,45.2-42.9,63.6s-39.8,32.8-63.6,42.9
		C277.2,453.7,251,459,224,459s-53.2-5.3-77.8-15.7c-23.8-10.1-45.2-24.5-63.6-42.9s-32.8-39.8-42.9-63.6C29.3,312.2,24,286,24,259
		s5.3-53.2,15.7-77.8c10.1-23.8,24.5-45.2,42.9-63.6s39.8-32.8,63.6-42.9C170.8,64.3,197,59,224,59 M224,43C104.7,43,8,139.7,8,259
		s96.7,216,216,216s216-96.7,216-216S343.3,43,224,43L224,43z"/>
</g>
</svg>
