<svg width="25" height="24" viewBox="0 0 25 24" fill="none" xmlns="http://www.w3.org/2000/svg">
<path d="M12.0157 7.89001L10.9457 9.75001C10.7057 10.16 10.9057 10.5 11.3757 10.5H12.6457C13.1257 10.5 13.3157 10.84 13.0757 11.25L12.0157 13.11" stroke="white" stroke-linecap="round" stroke-linejoin="round"/>
<path d="M8.31573 18.0401V16.8801C6.01573 15.4901 4.12573 12.7801 4.12573 9.90005C4.12573 4.95005 8.67573 1.07005 13.8157 2.19005C16.0757 2.69005 18.0557 4.19005 19.0857 6.26005C21.1757 10.4601 18.9757 14.9201 15.7457 16.8701V18.0301C15.7457 18.3201 15.8557 18.9901 14.7857 18.9901H9.27573C8.17573 19.0001 8.31573 18.5701 8.31573 18.0401Z" stroke="white" stroke-linecap="round" stroke-linejoin="round"/>
<path d="M8.51562 22C10.8056 21.35 13.2256 21.35 15.5156 22" stroke="white" stroke-linecap="round" stroke-linejoin="round"/>
</svg>
