<?xml version="1.0" encoding="utf-8"?>
<!-- Generator: Adobe Illustrator 28.1.0, SVG Export Plug-In . SVG Version: 6.00 Build 0)  -->
<svg version="1.1" id="Layer_1" xmlns="http://www.w3.org/2000/svg" xmlns:xlink="http://www.w3.org/1999/xlink" x="0px" y="0px"
	 viewBox="0 0 24 24" style="enable-background:new 0 0 24 24;" xml:space="preserve">
<style type="text/css">
	.st0{fill:none;stroke:#FFFFFF;stroke-miterlimit:10;}
	.st1{fill:#FFFFFF;}
</style>
<g>
	<path class="st0" d="M14.2,2.7L9.5,1.9C5.6,1.3,3.8,2.7,3.2,6.6l-0.7,4.7c-0.4,2.6,0,4.2,1.5,5.2c0.8,0.5,1.8,0.9,3.1,1.1l4.7,0.7
		c3.9,0.6,5.7-0.7,6.3-4.6L18.8,9c0.1-0.8,0.2-1.5,0.1-2.1C18.8,4.5,17.3,3.2,14.2,2.7z M8.5,9.2c-1.2,0-2.1-1-2.1-2.1
		c0-1.2,1-2.1,2.1-2.1c1.2,0,2.1,1,2.1,2.1C10.7,8.2,9.7,9.2,8.5,9.2z"/>
	<path class="st1" d="M21.1,13.7l-1.5,4.5c-1.2,3.8-3.2,4.8-7,3.5l-4.5-1.5c-1.4-0.5-2.4-1-3.1-1.8c0.6,0.2,1.4,0.4,2.2,0.6l4.7,0.7
		c0.6,0.1,1.2,0.1,1.8,0.1c3.3,0,5.1-1.8,5.7-5.6l0.7-4.7c0.1-0.6,0.1-1.1,0.1-1.6C21.7,9.3,22,11,21.1,13.7z"/>
</g>
</svg>
